<svg width="260" height="200" viewBox="0 0 260 200" fill="none" xmlns="http://www.w3.org/2000/svg">
<rect width="260" height="200" fill="#E5E5E5"/>
<g id="karina kedo logo" clip-path="url(#clip0_60_18)">
<g id="shadow">
<path id="K" d="M51.8231 200.334V113.452L79.3225 146.132V190.415L51.8231 200.334Z" fill="#002480"/>
<path id="K_2" d="M72.7113 57.5673L51.8231 82.6313V0L79.3225 13.2848V57.5673H72.7113Z" fill="#002480"/>
</g>
<g id="front k">
<g id="K_3">
<mask id="path-3-inside-1_60_18" fill="white">
<path d="M115.016 0L83.7292 39.8543H145.424L179.003 0H115.016Z"/>
</mask>
<path d="M115.016 0L83.7292 39.8543H145.424L179.003 0H115.016Z" fill="#90AFFF" stroke="#002480" stroke-width="8" mask="url(#path-3-inside-1_60_18)"/>
</g>
<path id="K_4" d="M116.819 4.40295L90.9185 37.4251H141.991L169.788 4.40295H116.819Z" fill="#90AFFF"/>
<g id="K_5">
<mask id="path-5-inside-2_60_18" fill="white">
<path d="M83.7289 39.8543H145.424L165.954 107.322L130 61.9956H90.3391L83.7289 39.8543Z"/>
</mask>
<path d="M83.7289 39.8543H145.424L165.954 107.322L130 61.9956H90.3391L83.7289 39.8543Z" fill="#90AFFF"/>
<path d="M83.7289 39.8543H145.424L165.954 107.322L130 61.9956H90.3391L83.7289 39.8543Z" fill="black" fill-opacity="0.2"/>
<path d="M83.7289 39.8543H145.424L165.954 107.322L130 61.9956H90.3391L83.7289 39.8543Z" stroke="#002480" stroke-width="8" mask="url(#path-5-inside-2_60_18)"/>
</g>
<g id="K_6">
<path d="M88.7277 42.9288H142.152L159.929 101.268L128.796 62.0743H94.4517L88.7277 42.9288Z" fill="#90AFFF"/>
<path d="M88.7277 42.9288H142.152L159.929 101.268L128.796 62.0743H94.4517L88.7277 42.9288Z" fill="black" fill-opacity="0.2"/>
</g>
<g id="K_7">
<mask id="path-7-inside-3_60_18" fill="white">
<path d="M52.8816 77.4945L72.7122 57.5673H132.204L99.9462 94.8533L186.408 200.334H119.248L52.8816 121.777L51.8239 200.334H0V0H51.8239L52.8816 77.4945Z"/>
</mask>
<path d="M52.8816 77.4945L72.7122 57.5673H132.204L99.9462 94.8533L186.408 200.334H119.248L52.8816 121.777L51.8239 200.334H0V0H51.8239L52.8816 77.4945Z" fill="#90AFFF" stroke="#002480" stroke-width="8" mask="url(#path-7-inside-3_60_18)"/>
</g>
</g>
<g id="filled K">
<path id="K_8" d="M145.424 39.8543L179.002 0L193.899 77.4945L260 94.8533L235.764 130.634L180.679 119.563L160.848 94.8533L145.424 39.8543Z" fill="#002480"/>
<path id="K_9" d="M99.9449 94.8533L132.204 57.5674L213.73 159.417L186.406 200.334L99.9449 94.8533Z" fill="#002480"/>
</g>
</g>
<defs>
<clipPath id="clip0_60_18">
<rect width="260" height="200" fill="white"/>
</clipPath>
</defs>
</svg>
